<?xml version="1.0" standalone="no"?>
<!DOCTYPE svg PUBLIC "-//W3C//DTD SVG 20010904//EN"
 "http://www.w3.org/TR/2001/REC-SVG-20010904/DTD/svg10.dtd">
<svg version="1.0" xmlns="http://www.w3.org/2000/svg"
 width="1280.000000pt" height="720.000000pt" viewBox="0 0 1280.000000 720.000000"
 preserveAspectRatio="xMidYMid meet">

<g transform="translate(0.000000,720.000000) scale(0.100000,-0.100000)"
fill="#000000" stroke="none">
<path d="M0 1012 l0 -1002 2403 2 c1321 1 2305 5 2187 8 -118 3 -195 8 -170
11 26 3 -15 7 -100 8 -80 2 -161 5 -180 8 -39 5 -276 9 -862 13 -219 2 -398 6
-398 10 0 4 -98 8 -217 8 -324 0 -663 13 -663 24 0 7 -28 8 -76 3 -48 -4 -79
-3 -83 3 -3 6 -105 13 -241 16 -135 4 -236 11 -238 16 -2 6 -21 10 -43 10 -22
0 -39 5 -39 11 0 8 -24 9 -80 4 -70 -6 -80 -5 -80 9 0 11 -9 16 -33 16 -18 0
-59 7 -90 15 -32 8 -71 15 -87 15 -17 0 -30 5 -30 10 0 6 -7 10 -16 10 -8 0
-22 7 -31 15 -8 9 -23 13 -32 10 -21 -6 -82 18 -101 39 -7 9 -19 16 -26 16
-14 0 -23 4 -80 33 -17 9 -34 14 -37 11 -3 -4 -22 -3 -42 0 -26 5 -35 12 -35
27 0 28 -64 89 -93 89 -24 0 -31 10 -50 72 -4 11 -13 15 -26 11 -16 -4 -21 1
-26 30 -4 20 -4 40 -1 45 8 13 -17 43 -39 46 -14 2 -22 14 -27 42 -3 21 -13
59 -21 83 -10 29 -14 61 -10 94 5 39 3 51 -10 58 -11 6 -17 32 -22 84 -4 41
-12 75 -17 75 -5 0 -9 40 -8 93 2 289 0 361 -9 352 -5 -6 -12 -37 -14 -70 -2
-40 -4 -28 -4 36 0 57 -6 105 -13 119 -10 18 -10 25 -1 28 16 5 14 22 -9 66
-10 21 -28 86 -40 144 -11 59 -25 111 -30 116 -7 7 -10 -340 -10 -992z"/>
</g>
</svg>
